<svg xmlns:dc="http://purl.org/dc/elements/1.1/" xmlns:cc="http://creativecommons.org/ns#" xmlns:rdf="http://www.w3.org/1999/02/22-rdf-syntax-ns#" xmlns:svg="http://www.w3.org/2000/svg" xmlns="http://www.w3.org/2000/svg" xmlns:sodipodi="http://sodipodi.sourceforge.net/DTD/sodipodi-0.dtd" xmlns:inkscape="http://www.inkscape.org/namespaces/inkscape" width="1551.0714" height="1269.5519" id="svg2" version="1.1" inkscape:version="0.48.4 r9939" sodipodi:docname="Colombia La Guajira location map (adm colored).svg">
  <defs id="defs4"/>
  <sodipodi:namedview id="base" pagecolor="#ffffff" bordercolor="#666666" borderopacity="1.0" inkscape:pageopacity="0.0" inkscape:pageshadow="2" inkscape:zoom="0.39305207" inkscape:cx="775.53571" inkscape:cy="634.77594" inkscape:document-units="px" inkscape:current-layer="layer15" showgrid="false" inkscape:window-width="1366" inkscape:window-height="716" inkscape:window-x="-8" inkscape:window-y="-8" inkscape:window-maximized="1" fit-margin-top="0" fit-margin-left="0" fit-margin-right="0" fit-margin-bottom="0" inkscape:snap-page="false" showguides="true" inkscape:guide-bbox="true" inkscape:snap-bbox="true" borderlayer="true"/>
  <metadata id="metadata7">
    <rdf:RDF>
      <cc:Work rdf:about="">
        <dc:format>image/svg+xml</dc:format>
        <dc:type rdf:resource="http://purl.org/dc/dcmitype/StillImage"/>
        <dc:title/>
      </cc:Work>
    </rdf:RDF>
  </metadata>
  <g inkscape:groupmode="layer" id="layer9" inkscape:label="Municipios" style="display:inline" transform="translate(-2958.0249,372.43457)">
    <path id="path3510" style="display:inline;fill:#646A6D;stroke:#646464;stroke-width:0.40000000000000002;stroke-linecap:butt;stroke-linejoin:round;stroke-miterlimit:4;stroke-dasharray:none;stroke-opacity:1;fill-opacity:1" d="m 3449.0119,842.48213 -17.8711,-0.29166 -0.1116,5.72073 -12.1529,8.9e-4 -0.071,5.43318 -15.5213,-0.1716 -0.033,5.79848 -11.0325,0.21188 -0.2534,5.24715 -26.5361,0.0802 0.031,-59.97594 -27.0853,0 -0.6606,-7.92738 -7.7072,-4.18391 -17.6164,27.52565 -6.6061,-2.86267 -6.6062,1.54144 -6.3859,6.38594 -4.4041,-0.4404 -5.9456,-0.22021 -3.303,1.76165 1.9818,4.6243 -0.8808,1.98185 -4.6243,2.20204 -0.6606,4.40411 6.8263,-1.32123 5.0647,4.62431 1.5415,2.86267 7.7071,5.28492 0.8809,11.89108 -1.9819,9.24861 1.9819,6.38594 3.303,-0.66061 19.8185,-12.7719 4.4041,-1.10102 4.1839,-2.42225 8.7981,0.36154 5.5728,5.12976 6.8165,0.39449 4.961,5.57518 4.6798,-1.11126 3.3031,-2.64246 9.0284,-0.66062 0.5599,4.37934 6.9271,0.46518 3.7435,2.92427 9.7106,-1.06498 5.3786,-6.99609 3.0829,0 1.5415,1.32123 9.9164,-8.49824 3.2641,4.04023 7.4938,-7.3977 10.548,-3.71001 5.1484,0.84938 1.9654,-1.52476 2.382,-5.65182 3.8927,-1.8685 z" inkscape:connector-curvature="0" sodipodi:nodetypes="ccccccccccccccccccccccccccccccccccccccccccccccccccccccccccc"/>
  </g>
</svg>