<svg xmlns:dc="http://purl.org/dc/elements/1.1/" xmlns:cc="http://creativecommons.org/ns#" xmlns:rdf="http://www.w3.org/1999/02/22-rdf-syntax-ns#" xmlns:svg="http://www.w3.org/2000/svg" xmlns="http://www.w3.org/2000/svg" xmlns:sodipodi="http://sodipodi.sourceforge.net/DTD/sodipodi-0.dtd" xmlns:inkscape="http://www.inkscape.org/namespaces/inkscape" width="1551.0714" height="1269.5519" id="svg2" version="1.1" inkscape:version="0.48.4 r9939" sodipodi:docname="Colombia La Guajira location map (adm colored).svg">
  <defs id="defs4"/>
  <sodipodi:namedview id="base" pagecolor="#ffffff" bordercolor="#666666" borderopacity="1.0" inkscape:pageopacity="0.0" inkscape:pageshadow="2" inkscape:zoom="0.39305207" inkscape:cx="775.53571" inkscape:cy="634.77594" inkscape:document-units="px" inkscape:current-layer="layer15" showgrid="false" inkscape:window-width="1366" inkscape:window-height="716" inkscape:window-x="-8" inkscape:window-y="-8" inkscape:window-maximized="1" fit-margin-top="0" fit-margin-left="0" fit-margin-right="0" fit-margin-bottom="0" inkscape:snap-page="false" showguides="true" inkscape:guide-bbox="true" inkscape:snap-bbox="true" borderlayer="true"/>
  <metadata id="metadata7">
    <rdf:RDF>
      <cc:Work rdf:about="">
        <dc:format>image/svg+xml</dc:format>
        <dc:type rdf:resource="http://purl.org/dc/dcmitype/StillImage"/>
        <dc:title/>
      </cc:Work>
    </rdf:RDF>
  </metadata>
  <g inkscape:groupmode="layer" id="layer9" inkscape:label="Municipios" style="display:inline" transform="translate(-2958.0249,372.43457)"> 
    <path id="path4231" style="fill:#CB8EC2;stroke:#646464;stroke-width:0.40000000000000002;stroke-linecap:butt;stroke-linejoin:round;stroke-miterlimit:4;stroke-dasharray:none;stroke-opacity:1;fill-opacity:1" d="m 3463.4732,459.31439 -0.6941,1.21483 -5.9006,0.69418 -1.2149,4.16513 -1.7354,0.86773 -0.6942,2.6032 2.4296,1.38838 -0.6941,1.73546 -5.5535,1.38838 -6.5948,8.1567 0,2.2561 -9.0245,9.19798 -2.2561,3.29739 -2.7767,2.25611 -3.1239,-0.69419 -4.3386,1.04129 -2.7768,3.12384 -6.4212,-0.86774 -2.0826,-1.90901 -5.2064,0.69419 -5.0328,2.08256 -9.0245,-1.21483 -1.5619,-3.12384 -3.9916,1.38837 -0.6941,1.90902 -2.4297,1.90901 -3.818,-0.52064 -2.2561,3.81803 -4.1587,2.8269 -11.0667,-1.02197 -4.9827,4.04842 -7.7854,2.80276 -4.6712,5.6055 -5.6055,0.93425 -4.9827,5.60551 2.4913,7.47401 -6.8512,-2.80276 -4.0484,0 -10.5881,-6.53975 -2.4914,0 -4.9827,6.85117 -9.0311,3.11418 -3.737,4.98266 -5.6055,4.35984 -14.3252,3.11418 -8.4082,4.35984 -3.1142,6.22834 -3.1142,-3.4256 -1.8685,-1.55708 -2.8027,1.8685 -3.4256,0 -3.1142,-1.8685 -5.2941,3.11417 -14.3251,1.24567 -4.6713,3.42559 -4.6713,-6.53977 -8.7196,0 -3.737,4.04843 -8.7197,3.42559 -7.7854,0.62283 -1.8685,2.17992 -4.6713,3.11417 -15.2594,-1.55708 -2.18,-1.86851 -6.2283,3.11418 -3.6749,-0.15399 -6.0558,0.65106 0.3471,-4.16512 6.5948,-7.28897 3.4709,-0.69418 4.1651,-3.81803 -0.6942,-9.37153 6.9419,-9.02443 5.2064,-1.38838 3.818,1.73547 5.5535,-2.77675 1.0413,-5.2064 -0.3471,-3.81803 0.6942,-6.59478 3.471,-2.08256 0.6941,-4.16512 -4.1651,-4.85931 -3.818,-1.38838 0.3471,-2.08256 2.0825,-2.77675 0.6942,-4.16512 4.5122,-3.81803 2.4297,-0.34709 3.4709,-3.47094 0.6942,-4.16512 8.3303,-5.20641 5.5535,0.3471 12.4953,-6.24769 1.7355,-2.08256 6.2477,0 3.4709,-2.08256 1.0413,-4.16512 7.9832,-11.80118 3.1238,-5.20641 2.4297,0 2.0825,-4.85931 -1.0413,-4.16512 2.4297,0 0.6942,-2.08256 -2.0826,-5.20641 3.471,-5.90059 13.1895,-3.47093 2.4297,1.04128 3.818,-6.59478 -1.0413,-1.73547 3.1239,-2.77675 4.5122,-7.28896 -1.0413,-8.67734 2.4296,-1.73547 -1.3883,-4.51221 0,-5.9006 3.4709,-2.77674 1.7355,-3.12385 -1.0413,-5.55349 5.5535,-4.51222 0.3471,-2.42965 -4.5122,0 -13.5367,-11.45409 -1.7354,-4.51222 -6.2477,-6.24768 -1.7355,0 -1.3884,-5.5535 -4.9828,-3.85861 -2.2381,-4.86217 0,-3.28915 -2.2842,-3.43873 2.8082,-3.87673 4.2669,-1.2191 5.1812,-6.40032 2.1334,-0.30478 0.6096,3.9621 2.743,0.60956 2.743,2.43822 2.1334,-0.60956 1.8287,-2.74298 -2.1335,-1.82867 -1.5238,-3.65732 -1.5239,0 -0.9144,-3.35254 -3.6573,2.43822 -0.9143,-3.35256 1.2191,-2.13343 0.9143,-4.87642 9.4481,-5.48599 11.8863,-9.44807 0.9143,0.91433 -3.9621,4.26688 0.3048,2.13343 -5.486,5.79075 -0.6095,7.31465 1.8286,-0.60956 1.8287,1.21911 2.4382,-1.82865 3.6573,-1.21911 1.2191,-3.04777 2.1335,-0.30478 2.4382,3.04777 2.1334,-2.43821 3.3526,-0.91434 0.3047,5.48598 2.743,-1.52388 2.743,0 0.6096,-2.743 -6.4003,-6.40029 -4.2669,-0.91434 -1.2191,-2.13344 2.4382,-0.60954 0.9143,-2.43823 3.6573,-1.2191 1.2192,-4.57165 -6.0956,-0.91432 -3.6573,0.91432 -2.743,-1.2191 5.7908,-5.48599 5.7907,-0.91432 3.9621,-1.21911 1.8287,0.60956 1.2191,9.44807 3.9621,-1.82865 1.8286,0 0.9144,7.00985 2.743,0 1.8286,2.74299 0,2.43822 3.6573,1.52388 1.5704,-1.23799 2.3706,-0.64652 0.6466,-5.17223 -1.9396,-0.86205 -0.6465,-3.44814 -4.3102,-4.31019 0.6465,-1.72409 3.6637,-2.58611 0.431,-4.74121 2.5861,-0.43103 3.0171,-3.87916 -0.2155,-3.66367 -2.8016,3.01713 -4.9567,1.72409 -1.7241,0 -7.7584,3.44815 -3.6636,2.58611 -0.8621,-0.64653 1.7241,-1.50856 1.9396,-1.93959 9.0514,-4.52571 12.4996,-11.20649 7.5428,-10.77548 7.9738,-7.11181 8.6204,-9.05142 17.4563,-9.48242 8.1894,-4.74121 7.5428,-1.07754 0.6465,4.5257 1.5086,-1.93958 -0.862,-1.07756 3.6636,-4.95672 6.6808,-3.23265 11.422,-7.97384 9.0514,-4.3102 8.1894,-2.1551 3.4482,-3.01714 3.2326,-0.43101 3.3404,-1.50857 3.7714,3.44816 0,3.87917 -2.1551,4.3102 3.4482,5.60324 5.1722,0 1.7241,2.58612 0.431,3.44815 7.3273,5.17224 12.4996,-1.29307 2.5861,1.72408 5.1722,2.15509 3.8792,-2.5861 6.0343,4.31019 8.1894,-1.72409 2.155,2.15511 -0.431,4.74121 3.8792,6.46528 3.4482,-2.15509 6.0342,-0.86204 1.2931,3.01713 4.3102,3.44816 4.3102,-1.29306 6.4653,0.43102 2.5861,-2.58612 2.1551,1.72408 6.0342,0 3.8792,2.58611 0.862,4.31019 4.7412,2.15511 1.7241,3.87917 0.8621,6.03426 7.3273,3.44816 3.4481,3.44816 6.4653,2.15509 4.3102,0 6.4528,4.64212 7.0674,4.16779 0.9143,5.48598 2.4382,1.82865 0.9144,5.48599 0.3047,6.40031 4.2669,7.31463 1.5239,5.48599 3.9621,5.79075 0.9143,9.44808 -0.3048,10.81956 -2.7429,1.98105 6.0955,8.53374 -4.8764,9.1433 4.8764,4.87643 -0.3048,4.26688 4.2669,10.97195 -0.3048,10.66718 -8.5337,4.87643 0,3.04776 -16.1532,-0.30478 -3.6573,21.94393 -2.743,2.43821 -0.3048,1.82865 -1.8286,1.21911 4.5716,4.26688 -5.486,2.43821 -2.4224,6.05556 -5.372,-2.19508 -11.2065,0.2155 -2.3706,-0.64652 -12.0685,6.6808 -9.2669,0.43102 -8.6204,1.50856 -13.1461,5.81877 -5.3877,0 -7.5429,5.81876 -4.9567,12.06854 -6.6808,4.31019 -8.1893,-0.43102 -6.8964,1.50856 -5.6418,3.15108 z" inkscape:connector-curvature="0" sodipodi:nodetypes="ccccccccccccccccccccccccccccccccccccccccccccccccccccccccccccccccccccccccccccccccccccccccccccccccccccccccccccccccccccccccccccccccccccccccccccccccccccccccccccccccccccccccccccccccccccccccccccccccccccccccccccccccccccccccccccccccccccccccccccccccccccccccccccccccccccccccccccccccccccccccccccccccccccccccccccccccccc"/>
  </g>
</svg>