<svg xmlns:dc="http://purl.org/dc/elements/1.1/" xmlns:cc="http://creativecommons.org/ns#" xmlns:rdf="http://www.w3.org/1999/02/22-rdf-syntax-ns#" xmlns:svg="http://www.w3.org/2000/svg" xmlns="http://www.w3.org/2000/svg" xmlns:sodipodi="http://sodipodi.sourceforge.net/DTD/sodipodi-0.dtd" xmlns:inkscape="http://www.inkscape.org/namespaces/inkscape" width="1551.0714" height="1269.5519" id="svg2" version="1.1" inkscape:version="0.48.4 r9939" sodipodi:docname="Colombia La Guajira location map (adm colored).svg">
  <defs id="defs4"/>
  <sodipodi:namedview id="base" pagecolor="#ffffff" bordercolor="#666666" borderopacity="1.0" inkscape:pageopacity="0.0" inkscape:pageshadow="2" inkscape:zoom="0.39305207" inkscape:cx="775.53571" inkscape:cy="634.77594" inkscape:document-units="px" inkscape:current-layer="layer15" showgrid="false" inkscape:window-width="1366" inkscape:window-height="716" inkscape:window-x="-8" inkscape:window-y="-8" inkscape:window-maximized="1" fit-margin-top="0" fit-margin-left="0" fit-margin-right="0" fit-margin-bottom="0" inkscape:snap-page="false" showguides="true" inkscape:guide-bbox="true" inkscape:snap-bbox="true" borderlayer="true"/>
  <metadata id="metadata7">
    <rdf:RDF>
      <cc:Work rdf:about="">
        <dc:format>image/svg+xml</dc:format>
        <dc:type rdf:resource="http://purl.org/dc/dcmitype/StillImage"/>
        <dc:title/>
      </cc:Work>
    </rdf:RDF>
  </metadata>
  <g inkscape:groupmode="layer" id="layer9" inkscape:label="Municipios" style="display:inline" transform="translate(-2958.0249,372.43457)">  
    <path id="path5017" style="fill:#58EF33;stroke:#646464;stroke-width:0.40000000000000002;stroke-linecap:butt;stroke-linejoin:round;stroke-miterlimit:4;stroke-dasharray:none;stroke-opacity:1;fill-opacity:1" d="m 4081.7512,105.01058 252.7947,-83.638428 -0.936,-1.193532 -2.658,0.166127 -2.3258,1.329025 -3.1564,-2.159658 -1.1629,-5.316073 -1.9935,-1.495138 1.8274,-4.4854412 3.1564,-0.3322529 3.987,2.8241631 3.4888,0 5.6482,-3.9870616 5.4823,-0.3322529 2.1596,1.6612779 3.8208,0 1.8276,-5.3160734 3.4886,-2.49191023 2.9903,-0.83063231 2.3257,2.15965734 7.4706,-2.32643445 -0.6117,-4.18455175 0.4404,-5.2849226 1.9818,-6.385943 5.285,-3.743495 0.6606,-12.111271 5.5051,-4.404111 -0.8808,-1.541427 -4.8445,0.440406 -5.2849,5.725328 -3.3032,1.54144 -9.4688,0 -0.6606,-0.880825 -2.202,-1.981846 2.4222,-1.761636 5.5052,-0.440406 0.4404,-1.54144 -2.8627,-2.86267 0.8808,-1.981846 5.7254,1.54144 2.6424,3.082867 1.9819,-3.082867 1.9818,0 0.2202,-1.321231 -5.0647,-0.880824 0.2202,-2.422252 3.3031,-1.32123 5.5051,5.505131 4.4041,1.761637 2.2021,4.183901 3.9636,0.880811 5.7254,-2.642461 3.9637,-7.486964 16.0749,-16.295186 4.6243,-1.32123 5.0648,-6.826362 4.8445,-1.101021 2.6424,-3.523286 7.4491,-5.621849 8.0969,1.245663 4.3599,-4.982666 3.4255,0.311419 4.3599,-4.048421 3.1142,0 4.3598,-3.114177 5.2941,-1.245663 11.5224,-18.996445 4.0484,-4.98268 -2.1799,-4.35984 0,-22.11061 -2.0761,-6.41661 -14.7404,-21.92233 -7.1626,-10.89961 -2.1799,-5.91692 -4.0485,-4.98266 -4.9826,-9.65394 -14.948,-20.24211 -4.3599,-13.39092 -8.7197,-10.27677 -3.7369,-9.65393 0,-6.85118 2.4913,-1.8685 -0.6229,-3.737 -7.4739,-4.04843 -6.5398,-7.16259 -4.6713,-0.93425 -13.3909,-14.01377 -16.5051,-6.22834 -4.6712,-3.11417 -2.8028,1.55709 -1.2457,4.04842 -5.9169,-1.24567 -10.2768,-7.47401 -16.8165,-7.78543 -10.8996,-1.55708 -6.2284,-4.04842 -4.9826,3.11417 -3.737,0.31142 -5.2941,-3.11418 -4.6713,3.42559 -9.6539,-4.98267 -1.5571,-7.78543 -3.737,-3.42558 -5.9169,-0.93426 -6.5398,-6.53975 -10.2767,-1.86851 -15.5709,-7.47401 -3.1142,1.24567 -2.4913,-2.17992 -10.2768,0 -4.6712,1.86851 -6.8512,-4.35984 -4.0484,4.98267 -3.4256,-0.62283 -16.1937,-1.24567 -12.7681,-4.04842 -9.6539,-5.91693 -4.9827,0 -2.4913,-1.24567 -8.7197,2.49134 -10.2768,6.22834 -13.3909,2.80275 -5.6055,5.29409 -4.3599,8.40826 -1.557,1.86851 0.9342,1.8685 9.9654,-5.60551 7.1626,0 3.1141,-9.96534 5.917,-0.62284 3.4255,-4.04842 2.18,0 0,2.80275 -7.474,8.40826 -2.8028,1.24567 0.6228,2.80276 9.3426,-2.80276 6.2283,-7.47401 1.5571,1.24567 -2.1799,3.73701 1.557,0.62283 5.917,-6.22834 7.1626,0 0,2.49134 -5.917,5.29409 4.9827,-2.49134 1.8685,0.93425 -4.3598,3.11417 -2.8028,0 -0.6228,2.80275 -5.2941,2.17992 -3.737,4.35984 1.8685,2.49134 3.737,-2.80275 6.8512,-0.31142 -5.6055,-1.55709 3.1141,0 2.1799,-1.24566 1.5571,0.31141 11.5225,-3.737 4.9826,2.17992 -3.1141,3.11417 -6.2284,2.49133 -3.4256,2.49134 -10.2767,1.24567 -5.2941,5.29409 -8.4083,-3.11417 -3.4256,0 -3.9194,0.60394 0.9092,1.37288 5.5016,1.20967 -0.3114,2.41902 -4.0485,1.8685 1.5571,1.24567 9.654,5.29409 -4.6713,4.04842 -2.8028,0.31141 -0.6228,0.93426 -7.7854,0 1.2457,-1.86851 4.0484,-0.62283 -1.2457,-3.737 -3.4256,-2.80276 -3.737,0 1.5571,2.49134 -1.8685,1.8685 -4.0484,-4.98267 -0.9343,-0.93425 -1.2457,0.31141 0.3115,3.42559 -3.737,-4.67126 0.9342,-4.67125 5.9169,-4.35984 -0.3114,-2.49134 -1.5571,-0.93425 0.9343,-2.17992 2.1799,0.31142 2.1799,2.49134 -1.8685,-5.60551 -7.474,-2.17992 -4.3598,4.98267 0,4.35984 -2.039,3.98614 -8.1475,2.42226 -4.1839,3.08287 -3.7435,1.98185 2.4222,1.54143 3.3031,-1.98184 5.9455,0.2202 1.1011,3.30308 1.3212,1.32123 0.4404,6.60615 -1.101,1.32123 -1.101,5.94554 -12.3315,9.46882 -7.0466,2.64246 -5.5051,-1.54143 -3.9637,1.10102 -4.6243,3.30308 -0.6606,7.48697 -3.0829,2.42226 -7.7072,-1.10103 -8.8082,-9.68902 -1.5414,-4.62431 -1.101,-1.10103 0,-7.04656 1.5414,-2.42226 1.9818,-0.44041 14.974,-9.24861 0.2202,-1.54144 -5.0647,-1.98184 -1.1011,-1.32123 -1.7616,0 -2.8627,2.20205 -0.8808,4.62431 -7.2668,3.74348 -2.8626,3.96369 -3.5233,0 -3.3031,-4.18389 -2.8626,0.44041 -5.7254,5.28492 -3.9637,6.16574 -8.8082,10.34964 -16.075,10.79005 -11.891,12.11129 -7.9274,6.60615 -2.6425,0.88082 4.8445,0.44041 0,4.1839 1.7617,0 0.6606,-4.1839 2.4223,-3.74349 4.8445,-0.2202 3.9637,2.42225 3.0828,-1.76164 9.6891,-1.32123 1.9818,-1.98184 2.2021,0.2202 3.0828,2.42226 1.3213,3.30307 4.6243,2.42226 -1.7617,1.98185 -1.3212,0 -2.6425,1.98184 0,2.20206 1.9819,1.98184 -0.8808,7.48697 6.3859,4.1839 3.9637,2.86267 2.6425,-3.52329 1.9818,0.88083 -1.5414,1.98184 -1.9819,1.76164 3.5233,2.86267 0.6606,3.52329 1.101,0 4.4041,-6.16575 1.3213,0 -1.101,5.94554 -1.5415,1.10102 -3.5233,3.74349 0,1.98185 3.5233,3.74348 -0.2202,1.10102 -1.5414,0.22021 -2.4223,1.98185 -4.1839,0 -1.3212,1.10102 -3.0829,-0.88081 -4.6243,0 -1.3212,-1.54144 -4.6243,0.22021 -3.5233,1.10102 -5.9455,5.72533 -3.7435,0 -1.5415,1.98184 -1.3212,0 0.2202,2.20206 9.0284,8.8082 -2.4222,-1.32123 -4.4041,0 -3.5233,3.52328 -0.8808,2.20205 -1.1011,0.88083 -1.7616,-1.54144 -4.4041,0.66061 -4.1839,2.20206 -7.7072,1.10102 -1.101,1.54144 -4.1839,0 -2.2021,-2.42225 -3.7435,-0.88083 -1.5414,2.20206 -2.6424,-2.42227 -0.6607,-3.96369 -1.3212,-0.4404 1.5414,-2.20206 1.5415,0.22021 1.3212,-1.76165 -0.4404,-6.16573 -0.8808,-0.88083 -0.6606,-2.42225 -1.5415,0 -1.101,1.32123 -1.3212,-3.52329 -5.285,-0.66061 0.2203,-1.98185 2.8626,-1.76163 0,-3.30308 0.6606,-1.54144 1.7617,2.64246 3.5233,-1.98184 -1.5415,-2.86267 -0.2202,-3.08287 4.1839,-3.30308 5.5051,-1.54144 3.7435,-3.52327 0,-3.08288 3.5233,-9.68902 1.5414,-1.10103 0,-2.20205 -2.202,-0.66061 -0.8808,-3.30308 -1.3213,0.2202 -0.8808,1.54144 -2.6424,-0.44041 -1.5415,-1.54144 -2.202,0.22021 -7.2668,4.62431 -3.0829,1.32123 -7.9274,3.08287 -15.4143,0.66061 -1.5414,0.88083 -4.8446,0.22019 -10.79,3.96369 -7.7072,0 -3.3031,1.98185 -1.5414,5.28494 0,7.26676 -1.5414,-6.38595 -0.2202,-5.06472 1.5414,-1.54144 -0.8808,-1.54144 -5.9456,0 -1.7616,1.54144 -2.4223,-1.54144 -11.4506,-2.42225 -11.8911,0.44041 -2.4223,2.64246 -5.0647,0.66061 -1.5414,2.86268 -3.7435,1.76164 -1.9819,3.08287 -1.3212,0 -3.3031,3.52329 -1.3212,0.88081 0.4404,2.42226 1.7617,0.66062 3.9637,1.98185 1.5414,-1.76165 7.0466,0 3.0828,2.86267 1.1011,4.6243 0.8808,1.54144 -1.5415,0.66062 0.6607,8.14758 3.7434,7.70718 -0.4404,6.38595 -1.3212,2.42226 0.6606,4.4041 1.7617,3.08287 -0.8809,10.56984 1.5415,5.28492 0.2202,6.82637 -6.6062,9.46882 -1.7616,7.04656 -4.4041,13.43251 -5.5052,6.60616 -4.404,5.28492 -2.8627,9.909226 -1.9819,6.826363 -7.0465,6.606152 -3.5233,11.891075 -3.9637,5.725328 0,5.064726 -6.3859,16.515382 -4.6244,6.826362 -6.8263,5.945537 0,3.743483 1.9818,1.54144 -4.4041,3.523272 -2.202,0.22021 -2.2021,0.880824 3.9637,-3.963691 0.8808,-3.303076 -3.303,0.880811 -1.9819,2.642461 -3.5233,1.76165 -8.1475,6.826349 -1.9819,1.101034 -6.8264,6.1657469 -7.7071,5.2849221 -7.0466,1.7616363 -12.3315,8.3677887 -4.1839,0.660616 -0.8808,2.202055 -3.7067,3.276192 -1.5128,4.121898 0.7582,4.169578 5.071,4.432439 1.2412,8.308681 3.067,2.875304 -0.1917,2.875304 0.1917,3.450366 2.6836,4.4088 -3.8337,5.558921 -2.4919,0.575061 -4.2171,1.91687 0.7667,3.642052 2.1086,1.725183 -0.3834,1.916869 -0.5751,0.575061 -0.3833,3.066991 -2.492,2.875305 0,5.750608 -2.6836,2.875305 -2.4919,-1.150122 0,2.875304 -2.8753,1.725183 -2.492,8.8176 -2.1085,2.49193 2.4919,2.683614 -0.3834,1.15013 0.1917,3.25867 2.8753,1.72519 1.1502,3.06699 -1.7252,3.45036 -5.3673,1.34181 -1.5335,3.83374 1.1502,1.34181 -3.067,2.10856 0,13.60977 4.2171,3.64205 0,3.06699 6.709,3.83374 4.4088,0.38338 9.3927,4.02542 3.642,4.98386 6.9008,6.90073 -0.1917,19.55207 4.9839,2.49193 4.4088,-1.34181 5.5589,1.34181 2.4919,3.25868 9.3927,7.66748 9.1767,3.5788 5.6739,-0.50532 7.5181,-1.87953 3.759,3.75904 3.2892,-0.93976 15.0361,0 5.1687,-2.34939 2.8192,1.40964 9.8675,0 8.9277,-3.75903 3.2891,1.40963 8.9277,0 54.8288,-82.0694 11.7478,-14.454289 7.59,-1.699264 8.6096,-0.566421 0.4532,2.265685 -2.4923,1.925829 0.5665,1.4727 2.0391,0.45314 -0.1133,2.49225 -1.8126,1.69927 1.8126,2.49225 5.2111,1.13284 4.4181,2.49226 -0.3399,3.17196 -1.9258,0.6797 -0.3399,4.87123 1.1329,0.56642 3.2069,2.79774 z" inkscape:connector-curvature="0" sodipodi:nodetypes="cccccccccccccccccccccccccccccccccccccccccccccccccccccccccccccccccccccccccccccccccccccccccccccccccccccccccccccccccccccccccccccccccccccccccccccccccccccccccccccccccccccccccccccccccccccccccccccccccccccccccccccccccccccccccccccccccccccccccccccccccccccccccccccccccccccccccccccccccccccccccccccccccccccccccccccccccccccccccccccccccccccccccccccccccccccccccccccccccccccccccccccccccccccccccccccccccccccccccccccccccccccccccccccccccccccccccccccccccccccccccccccccccccccccccccccccccccccccccccccccccccccccccccccccccccccccccc"/>
  </g>
</svg>